<?xml version="1.0" standalone="no"?>
<!DOCTYPE svg PUBLIC "-//W3C//DTD SVG 20010904//EN"
 "http://www.w3.org/TR/2001/REC-SVG-20010904/DTD/svg10.dtd">
<svg version="1.0" xmlns="http://www.w3.org/2000/svg"
 width="16.000000pt" height="16.000000pt" viewBox="0 0 16.000000 16.000000"
 preserveAspectRatio="xMidYMid meet">
<metadata>
Created by potrace 1.11, written by Peter Selinger 2001-2013
</metadata>
<g transform="translate(0.000000,16.000000) scale(0.003048,-0.003048)"
fill="#000000" stroke="none">
<path d="M4480 5090 c-15 -5 15 -6 70 -3 52 3 97 7 99 9 9 8 -145 2 -169 -6z"/>
<path d="M4762 5089 c129 -19 223 -91 269 -205 21 -52 23 -74 22 -189 -3 -299
-72 -515 -223 -697 -93 -112 -290 -308 -651 -648 -62 -58 -69 -69 -69 -103 0
-33 3 -37 25 -37 48 0 133 -40 169 -80 60 -67 71 -96 71 -190 0 -111 -14 -136
-149 -270 l-106 -105 0 -121 0 -121 49 -7 c68 -9 148 -68 186 -138 25 -45 29
-64 29 -128 0 -102 -21 -139 -153 -273 l-106 -108 4 -547 c3 -468 1 -552 -12
-582 -22 -51 -304 -325 -342 -333 -17 -3 -92 -9 -167 -13 -128 -6 -137 -6
-175 15 -22 13 -47 35 -56 49 l-16 27 -1 -33 c0 -19 4 -31 10 -27 5 3 12 -6
16 -20 3 -14 12 -25 20 -25 8 0 14 -7 14 -15 0 -9 6 -15 13 -14 33 4 68 -2 62
-11 -4 -7 52 -10 162 -9 103 0 160 4 148 9 -16 7 -13 9 18 9 20 1 37 5 37 11
0 5 11 12 24 16 14 3 33 17 43 30 10 13 23 24 30 24 7 0 13 7 13 15 0 8 7 15
15 15 8 0 15 7 15 15 0 8 4 15 9 15 10 0 71 58 71 66 0 3 11 15 25 28 14 13
25 28 25 35 0 6 7 11 15 11 10 0 15 10 15 30 0 18 6 33 15 36 13 5 15 77 15
559 0 482 2 554 15 559 8 3 15 15 15 26 0 12 4 19 9 15 5 -3 12 3 16 14 3 11
13 22 21 25 8 3 12 10 9 16 -3 5 1 10 9 10 9 0 16 7 16 15 0 8 7 15 15 15 8 0
15 7 15 16 0 8 4 13 8 10 9 -6 42 29 42 44 0 6 7 10 15 10 9 0 15 9 15 24 0
13 7 26 15 30 10 3 15 19 15 46 0 22 5 40 11 40 7 0 9 17 6 48 -7 66 -27 142
-38 142 -5 0 -9 12 -9 26 0 14 -4 23 -9 19 -5 -3 -12 4 -16 15 -3 11 -13 20
-21 20 -8 0 -13 5 -12 12 2 7 -10 14 -26 17 -17 3 -28 11 -25 16 2 6 -6 11
-18 13 -13 2 -23 8 -23 13 0 5 -9 9 -20 9 -11 0 -20 7 -20 15 0 8 -6 15 -14
15 -10 0 -14 21 -15 85 -2 71 1 85 13 85 9 0 15 3 15 7 -4 25 3 43 16 43 8 0
15 5 15 11 0 6 29 39 65 74 36 34 65 68 65 74 0 6 7 11 15 11 10 0 15 10 15
33 0 23 3 28 9 18 13 -21 26 47 24 131 -2 80 -11 118 -24 97 -6 -10 -9 -2 -9
24 0 36 -27 77 -50 77 -5 0 -10 7 -10 15 0 8 -7 15 -15 15 -8 0 -15 4 -15 9 0
5 -10 13 -22 17 -12 3 -28 13 -36 20 -7 8 -21 14 -30 14 -15 0 -15 2 -2 10 10
6 11 10 3 10 -7 0 -13 12 -13 28 0 19 3 23 9 14 6 -10 10 -7 15 12 3 14 11 26
16 26 6 0 10 7 10 15 0 8 7 15 15 15 8 0 15 7 15 15 0 8 7 15 15 15 8 0 15 7
15 15 0 8 6 14 13 13 6 -2 11 3 9 10 -1 6 5 12 13 12 8 0 15 7 15 15 0 8 5 15
10 15 13 0 50 37 50 50 0 5 7 7 15 4 8 -4 15 -1 15 7 0 7 3 10 6 6 3 -3 16 5
29 19 12 13 27 24 34 24 6 0 11 4 11 9 0 12 59 71 71 71 5 0 9 7 9 15 0 8 7
15 15 15 8 0 15 7 15 15 0 8 7 15 15 15 8 0 15 5 15 11 0 14 25 39 39 39 6 0
11 7 11 15 0 8 7 15 15 15 8 0 15 5 15 10 0 6 12 22 26 35 14 13 26 33 27 44
1 12 7 21 14 21 7 0 13 7 13 15 0 8 7 15 15 15 8 0 15 7 15 15 0 8 6 15 13 15
7 0 21 14 30 30 10 17 22 30 28 30 5 0 9 12 9 26 0 15 4 23 11 19 6 -4 13 2
16 14 3 12 9 21 14 21 5 0 8 3 7 8 -3 16 15 61 23 56 5 -3 9 10 9 30 0 19 5
36 12 38 6 2 14 35 18 74 5 45 8 57 10 34 2 -25 5 -15 11 35 5 39 14 83 19 99
13 39 13 369 0 361 -6 -4 -10 8 -10 29 0 19 -7 41 -15 50 -8 8 -15 22 -15 30
0 9 -4 16 -9 16 -5 0 -14 12 -19 28 -6 15 -11 21 -11 14 -1 -10 -4 -10 -15 0
-8 7 -12 16 -9 21 2 4 -5 7 -17 7 -12 0 -19 4 -15 9 3 5 -11 15 -30 21 -19 6
-35 15 -35 20 0 4 -6 8 -12 7 -42 -1 -68 4 -63 13 4 6 -19 10 -62 9 l-68 -1
57 -9z"/>
<path d="M4408 5073 c7 -3 16 -2 19 1 4 3 -2 6 -13 5 -11 0 -14 -3 -6 -6z"/>
<path d="M4353 5063 c9 -2 23 -2 30 0 6 3 -1 5 -18 5 -16 0 -22 -2 -12 -5z"/>
<path d="M4308 5053 c7 -3 16 -2 19 1 4 3 -2 6 -13 5 -11 0 -14 -3 -6 -6z"/>
<path d="M4245 5040 c-13 -5 -14 -9 -5 -9 8 0 24 4 35 9 13 5 14 9 5 9 -8 0
-24 -4 -35 -9z"/>
<path d="M4120 4990 c-9 -6 -10 -10 -3 -10 6 0 15 5 18 10 8 12 4 12 -15 0z"/>
<path d="M4531 4925 c-204 -26 -314 -66 -441 -161 -75 -57 -328 -306 -589
-581 l-183 -193 -194 0 c-107 0 -194 3 -194 7 0 4 18 26 41 49 70 71 62 167
-17 200 -67 28 -92 14 -235 -128 l-130 -130 -272 7 c-150 4 -273 8 -274 9 -2
1 15 21 36 44 63 67 66 139 9 187 -31 26 -92 34 -126 16 -9 -5 -71 -64 -137
-131 l-120 -122 -570 6 -569 7 -122 -125 -121 -125 -5 -108 c-3 -59 -4 -109
-3 -110 1 -2 53 48 116 111 l114 114 95 -14 c52 -7 329 -45 615 -84 908 -123
1103 -163 1383 -285 34 -15 62 -30 62 -34 -1 -3 -38 -46 -84 -94 -182 -191
-529 -551 -701 -727 -384 -393 -496 -524 -601 -707 -10 -18 -23 -33 -29 -33
-5 0 -171 32 -368 72 l-358 71 -115 -114 c-63 -62 -114 -116 -114 -120 0 -5
89 -63 475 -307 317 -201 295 -185 278 -207 -32 -43 -73 -134 -62 -140 16 -10
55 2 108 35 26 17 50 30 53 30 4 0 71 -104 188 -290 145 -232 264 -419 278
-438 l17 -22 117 117 117 118 -69 345 c-38 190 -72 355 -75 367 -4 18 5 27 51
53 162 93 317 226 704 604 231 226 654 633 745 719 33 31 63 53 68 48 16 -16
90 -212 122 -321 64 -221 105 -478 246 -1518 l42 -314 -114 -115 -114 -115
115 6 115 7 118 117 117 117 0 569 0 569 124 127 c71 72 128 139 132 154 19
77 -34 146 -112 146 -41 0 -51 -5 -100 -51 l-54 -52 0 284 0 284 116 115 c63
63 122 127 130 142 18 35 18 81 -1 118 -20 38 -43 50 -100 50 -41 0 -51 -5
-94 -45 l-48 -45 -7 193 -8 192 194 185 c315 302 531 520 587 595 101 135 143
257 163 480 18 200 -4 274 -93 309 -59 24 -139 27 -268 11z"/>
<path d="M3960 4880 c-9 -6 -10 -10 -3 -10 6 0 15 5 18 10 8 12 4 12 -15 0z"/>
<path d="M3890 4819 c0 -5 5 -7 10 -4 6 3 10 8 10 11 0 2 -4 4 -10 4 -5 0 -10
-5 -10 -11z"/>
<path d="M3801 4740 c-35 -33 -60 -60 -56 -60 5 0 36 27 71 60 34 33 59 60 56
60 -4 0 -36 -27 -71 -60z"/>
<path d="M3720 4660 c-9 -6 -10 -10 -3 -10 6 0 15 5 18 10 8 12 4 12 -15 0z"/>
<path d="M3647 4593 c-4 -3 -7 -11 -7 -17 0 -6 5 -5 12 2 6 6 9 14 7 17 -3 3
-9 2 -12 -2z"/>
<path d="M3596 4532 l-19 -27 26 24 c28 26 32 31 20 31 -5 0 -17 -13 -27 -28z"/>
<path d="M3555 4490 c-3 -5 -1 -10 4 -10 6 0 11 5 11 10 0 6 -2 10 -4 10 -3 0
-8 -4 -11 -10z"/>
<path d="M1980 4430 c-18 -6 -8 -8 39 -9 64 -1 141 -30 185 -69 30 -28 65 -94
76 -150 l12 -52 116 0 c113 1 118 2 135 25 20 28 14 33 -9 10 -18 -18 -170
-22 -159 -5 3 6 1 10 -5 10 -6 0 -16 11 -22 25 -8 19 -14 22 -20 13 -5 -8 -8
-2 -8 17 -1 32 -16 58 -40 68 -10 4 -11 6 -2 6 7 1 2 12 -14 26 -14 13 -30 22
-35 19 -5 -3 -12 2 -15 10 -3 9 -12 16 -20 16 -8 0 -14 5 -14 11 0 5 -4 7 -10
4 -5 -3 -10 -1 -10 5 0 6 -4 8 -10 5 -5 -3 -23 1 -39 10 -32 16 -89 18 -131 5z"/>
<path d="M1918 4413 c7 -3 16 -2 19 1 4 3 -2 6 -13 5 -11 0 -14 -3 -6 -6z"/>
<path d="M2991 4404 c87 -27 165 -119 183 -216 6 -35 10 -38 40 -38 25 0 41 9
65 35 17 19 27 35 22 35 -5 0 -13 -4 -16 -10 -10 -16 -85 37 -85 60 0 6 -6 10
-12 10 -9 0 -8 4 2 10 13 8 12 10 -2 10 -10 0 -18 7 -18 15 0 8 -7 15 -15 15
-8 0 -15 7 -15 15 0 8 -9 15 -20 15 -10 0 -23 6 -27 14 -8 14 -104 47 -132 45
-9 -1 5 -7 30 -15z"/>
<path d="M2798 4403 c7 -3 16 -2 19 1 4 3 -2 6 -13 5 -11 0 -14 -3 -6 -6z"/>
<path d="M1805 4341 c-16 -15 -39 -38 -50 -52 -11 -13 4 -2 33 26 47 45 57 56
50 55 -2 0 -16 -13 -33 -29z"/>
<path d="M3359 4283 c-13 -16 -12 -17 4 -4 16 13 21 21 13 21 -2 0 -10 -8 -17
-17z"/>
<path d="M1710 4251 c-34 -36 -41 -54 -10 -24 19 18 32 34 29 36 -2 3 -11 -3
-19 -12z"/>
<path d="M1638 4188 c-4 -10 -81 -14 -324 -18 l-319 -6 320 -2 c311 -2 321 -1
333 18 7 11 8 20 3 20 -5 0 -11 -6 -13 -12z"/>
<path d="M508 4163 c7 -3 16 -2 19 1 4 3 -2 6 -13 5 -11 0 -14 -3 -6 -6z"/>
<path d="M359 4043 l-34 -38 38 34 c20 19 37 36 37 38 0 8 -8 0 -41 -34z"/>
<path d="M294 3983 c-10 -10 -26 -27 -34 -38 -8 -11 3 -4 23 14 20 19 37 36
37 38 0 7 -8 2 -26 -14z"/>
<path d="M220 3910 c-9 -6 -10 -10 -3 -10 6 0 15 5 18 10 8 12 4 12 -15 0z"/>
<path d="M156 3788 c-3 -13 -5 -63 -4 -113 l1 -90 7 110 c8 113 7 133 -4 93z"/>
<path d="M515 3510 c-100 -100 -136 -122 -200 -122 -69 0 -129 42 -154 107
l-11 30 5 -35 c11 -67 17 -90 27 -90 5 0 19 -11 32 -25 13 -13 26 -22 29 -18
4 3 7 1 7 -5 0 -7 16 -12 38 -12 27 0 33 -3 22 -10 -11 -7 -3 -10 28 -10 26 0
41 4 37 10 -4 6 10 10 34 10 23 0 41 4 41 9 0 5 14 14 30 20 17 5 30 15 30 20
0 6 7 11 16 11 8 0 12 5 9 10 -3 6 1 10 9 10 9 0 16 7 16 15 0 8 7 15 15 15 8
0 15 7 15 15 0 9 9 15 25 15 16 0 25 6 25 16 0 14 16 15 125 12 95 -2 124 -6
120 -15 -3 -10 22 -13 106 -13 61 0 108 -4 105 -9 -6 -9 74 -21 151 -21 28 0
54 -4 57 -8 3 -5 47 -12 98 -15 51 -3 94 -11 96 -17 2 -6 35 -10 78 -10 44 0
90 -6 111 -15 20 -9 66 -15 107 -15 48 0 79 -5 92 -15 12 -9 43 -14 87 -15 37
0 67 -4 67 -9 0 -4 33 -11 73 -15 39 -4 74 -11 75 -16 2 -6 16 -10 30 -10 39
0 73 -11 66 -21 -3 -5 4 -9 15 -9 15 0 20 -8 23 -35 l3 -35 53 52 53 51 -31
13 c-38 16 -246 68 -355 89 -130 24 -381 60 -895 130 -267 35 -498 67 -515 70
-27 4 -39 -4 -120 -85z"/>
<path d="M1991 2847 c-13 -21 -12 -21 5 -5 10 10 16 20 13 22 -3 3 -11 -5 -18
-17z"/>
<path d="M1946 2808 c3 -5 10 -6 15 -3 13 9 11 12 -6 12 -8 0 -12 -4 -9 -9z"/>
<path d="M1919 2773 c-13 -16 -12 -17 4 -4 9 7 17 15 17 17 0 8 -8 3 -21 -13z"/>
<path d="M1870 2732 c-37 -41 -41 -54 -7 -23 20 19 37 36 37 38 0 8 -17 0 -30
-15z"/>
<path d="M1800 2659 c0 -5 5 -7 10 -4 6 3 10 8 10 11 0 2 -4 4 -10 4 -5 0 -10
-5 -10 -11z"/>
<path d="M1753 2614 c-12 -13 -19 -24 -14 -24 4 0 18 11 31 25 13 14 19 25 14
24 -5 -1 -19 -12 -31 -25z"/>
<path d="M1710 2569 c0 -5 5 -7 10 -4 6 3 10 8 10 11 0 2 -4 4 -10 4 -5 0 -10
-5 -10 -11z"/>
<path d="M1650 2508 c-59 -63 -62 -68 -19 -33 35 30 74 75 67 78 -1 2 -23 -19
-48 -45z"/>
<path d="M3117 2333 c-183 -177 -423 -410 -607 -589 -85 -83 -193 -186 -240
-229 -81 -74 -305 -248 -330 -257 -9 -3 6 -96 55 -335 59 -291 65 -335 56
-371 -9 -33 -40 -69 -158 -186 -164 -164 -189 -178 -273 -157 -53 13 -86 48
-157 163 -257 417 -329 527 -343 522 -8 -3 -38 -8 -67 -11 -40 -4 -61 -1 -97
17 -85 41 -118 113 -92 203 15 49 14 51 -7 66 -12 9 -159 103 -327 209 -168
105 -316 206 -330 222 -28 34 -46 40 -30 10 6 -11 8 -26 4 -32 -4 -7 -3 -8 4
-4 13 8 35 -28 24 -39 -4 -5 -1 -5 6 -1 9 5 15 1 19 -13 3 -12 12 -21 19 -21
8 0 17 -7 20 -15 4 -8 14 -15 24 -15 10 0 21 -7 24 -16 4 -9 9 -14 12 -11 6 6
13 1 53 -33 26 -22 80 -50 97 -50 8 0 17 -7 20 -15 4 -8 10 -12 15 -9 5 3 9
-2 9 -10 0 -9 9 -16 20 -16 12 0 20 -7 20 -17 0 -15 2 -16 10 -3 6 10 10 11
10 3 0 -7 6 -13 14 -13 8 0 16 -7 20 -15 3 -8 12 -15 21 -15 8 0 15 -4 15 -10
0 -5 11 -12 25 -16 14 -3 25 -10 25 -14 0 -4 12 -11 27 -15 21 -5 24 -8 12
-16 -10 -6 -7 -9 14 -9 17 0 27 -5 27 -15 0 -9 6 -12 15 -9 10 4 15 0 15 -11
0 -9 7 -23 15 -31 14 -14 19 -55 16 -124 -1 -23 0 -23 8 -5 9 19 10 18 12 -5
1 -14 2 -31 2 -37 -1 -7 5 -13 13 -13 8 0 14 -10 14 -25 0 -16 6 -25 15 -25 8
0 15 -5 15 -11 0 -5 4 -7 10 -4 5 3 10 1 10 -4 0 -6 18 -11 41 -11 23 0 38 -4
34 -9 -3 -6 21 -13 55 -17 47 -5 68 -13 90 -34 17 -16 30 -33 30 -39 0 -6 7
-11 15 -11 8 0 15 -9 15 -20 0 -11 9 -29 20 -40 12 -12 17 -26 13 -36 -4 -11
-2 -15 5 -10 6 3 13 -2 17 -13 3 -10 17 -31 30 -45 14 -15 25 -34 25 -42 0 -7
4 -14 10 -14 5 0 12 -11 16 -24 3 -14 12 -27 21 -30 8 -3 11 -10 8 -16 -3 -5
-1 -10 5 -10 7 0 10 -7 6 -15 -3 -9 0 -15 9 -15 9 0 12 -6 8 -17 -5 -12 -2
-15 10 -10 13 5 17 1 17 -19 0 -16 4 -23 11 -18 7 4 10 1 7 -7 -3 -8 3 -21 12
-29 9 -8 20 -25 24 -37 4 -12 16 -25 28 -29 16 -5 18 -8 7 -15 -11 -7 -10 -9
4 -9 9 0 17 -7 17 -15 0 -8 6 -15 14 -15 8 0 22 -7 31 -16 22 -23 184 -22 201
1 6 8 16 15 23 15 6 0 11 5 11 11 0 14 25 39 39 39 6 0 11 7 11 15 0 8 7 15
15 15 8 0 15 7 15 15 0 8 7 15 15 15 8 0 15 6 15 13 0 8 11 20 25 27 14 7 25
21 25 31 0 12 5 16 15 13 9 -4 15 0 15 10 0 9 7 16 15 16 8 0 15 5 15 11 0 13
25 39 38 39 5 0 12 22 16 50 4 27 11 50 16 50 15 0 12 44 -5 76 -8 16 -15 55
-15 89 0 35 -6 69 -14 80 -8 11 -16 43 -19 70 -8 74 -27 168 -37 187 -6 10
-10 44 -10 75 0 49 5 63 29 91 16 17 34 32 40 32 6 0 11 7 11 15 0 8 7 15 15
15 8 0 15 5 15 11 0 5 5 7 10 4 6 -3 10 -1 10 4 0 6 7 11 16 11 8 0 12 5 9 11
-4 6 2 13 14 16 12 3 21 9 21 14 0 5 7 9 15 9 8 0 15 7 15 15 0 8 7 15 15 15
8 0 15 7 15 15 0 8 5 15 11 15 13 0 39 25 39 38 0 5 9 12 21 15 12 3 18 10 14
16 -4 7 4 11 19 11 16 0 26 6 26 15 0 8 4 15 10 15 5 0 53 43 105 95 53 52
100 95 106 95 6 0 7 5 4 10 -3 6 1 10 9 10 9 0 16 4 16 10 0 12 118 130 130
130 6 0 10 5 10 10 0 6 18 28 40 50 22 22 40 44 40 50 0 5 7 7 15 4 9 -4 15 0
15 10 0 9 7 16 15 16 8 0 15 7 15 15 0 8 7 15 17 15 9 0 14 3 11 6 -7 7 59 74
73 74 6 0 7 5 4 10 -3 6 1 13 9 16 9 3 16 12 16 20 0 8 5 14 11 14 7 0 22 11
35 25 13 14 28 25 34 25 5 0 10 7 10 15 0 8 6 15 14 15 8 0 16 7 20 15 4 10
20 15 50 15 36 0 45 -4 49 -21 3 -12 10 -18 16 -14 7 4 11 -13 12 -52 0 -44 3
-53 10 -38 8 16 8 14 5 -11 -3 -17 0 -36 6 -42 6 -6 10 -33 10 -61 0 -28 3
-49 7 -46 10 6 38 -174 42 -272 1 -29 6 -50 11 -47 5 3 6 -7 3 -23 -5 -23 -4
-25 5 -10 28 43 -116 797 -152 797 -5 0 -68 -57 -141 -127z"/>
<path d="M1550 2399 c0 -5 5 -7 10 -4 6 3 10 8 10 11 0 2 -4 4 -10 4 -5 0 -10
-5 -10 -11z"/>
<path d="M1527 2383 c-4 -3 -7 -11 -7 -17 0 -6 5 -5 12 2 6 6 9 14 7 17 -3 3
-9 2 -12 -2z"/>
<path d="M1380 2210 c-9 -6 -10 -10 -3 -10 6 0 15 5 18 10 8 12 4 12 -15 0z"/>
<path d="M550 2093 c19 -2 81 -13 138 -24 75 -14 108 -16 120 -9 14 9 13 10
-7 4 -16 -4 -21 -3 -17 5 5 8 -14 11 -61 12 -44 0 -61 3 -48 8 12 5 -16 8 -70
8 -49 0 -74 -2 -55 -4z"/>
<path d="M870 2034 c35 -8 70 -12 77 -10 6 3 13 1 15 -4 2 -5 21 -11 43 -14
22 -2 47 -6 55 -9 8 -3 46 -12 83 -20 l68 -14 30 43 c24 35 27 44 14 44 -9 0
-14 -4 -11 -9 3 -5 -6 -17 -21 -26 -30 -20 -98 -23 -141 -7 -15 6 -48 13 -75
17 -26 3 -45 10 -43 14 3 4 -32 8 -77 8 l-82 2 65 -15z"/>
<path d="M163 1695 c0 -27 2 -38 4 -22 2 15 2 37 0 50 -2 12 -4 0 -4 -28z"/>
<path d="M3422 1570 c0 -52 5 -98 10 -101 6 -4 14 -49 18 -100 8 -94 28 -204
36 -196 4 4 -52 442 -60 477 -3 8 -4 -28 -4 -80z"/>
<path d="M3480 1113 c0 -35 3 -44 10 -33 13 20 13 67 0 75 -6 4 -10 -12 -10
-42z"/>
<path d="M3502 1002 c1 -95 6 -132 20 -132 9 0 3 78 -12 170 -7 38 -8 32 -8
-38z"/>
<path d="M3530 737 c0 -106 -2 -118 -22 -137 -12 -11 -19 -22 -17 -25 3 -2 20
10 38 29 l32 33 -11 104 c-7 57 -14 106 -16 108 -2 2 -4 -48 -4 -112z"/>
<path d="M3446 533 c-6 -14 -5 -15 5 -6 7 7 10 15 7 18 -3 3 -9 -2 -12 -12z"/>
<path d="M3342 315 c-1 -40 2 -53 7 -40 5 11 5 38 1 60 -7 38 -8 36 -8 -20z"/>
</g>
</svg>
